<?xml version="1.0" standalone="no"?>
<!DOCTYPE svg PUBLIC "-//W3C//DTD SVG 20010904//EN"
 "http://www.w3.org/TR/2001/REC-SVG-20010904/DTD/svg10.dtd">
<svg version="1.0" xmlns="http://www.w3.org/2000/svg"
 width="512.000000pt" height="256.000000pt" viewBox="0 0 512.000000 256.000000"
 preserveAspectRatio="xMidYMid meet">

<g transform="translate(0.000000,256.000000) scale(0.100000,-0.100000)"
fill="#000000" stroke="none">
<path d="M850 1780 c0 -22 -38 -256 -85 -519 -47 -264 -85 -487 -85 -495 0
-14 18 -16 129 -16 l129 0 15 83 c8 45 25 142 38 215 l23 132 162 0 163 0 7
38 c3 20 12 65 19 100 l13 62 -164 0 -164 0 5 23 c2 12 9 51 15 87 6 36 13 77
16 93 l6 27 304 0 304 0 0 53 c0 28 3 76 6 105 l7 52 -432 0 -431 0 0 -40z"/>
<path d="M1870 1753 c0 -38 -3 -85 -6 -105 l-7 -38 276 0 275 0 7 78 c3 42 9
89 11 105 l6 27 -281 0 -281 0 0 -67z"/>
<path d="M2586 1743 c-4 -43 -9 -90 -12 -105 l-6 -28 276 0 c214 0 276 3 276
13 1 6 7 54 14 105 l13 92 -277 0 -278 0 -6 -77z"/>
<path d="M3300 1733 c-6 -49 -14 -96 -16 -105 -5 -17 13 -18 289 -18 l295 0
16 93 c9 50 19 98 21 105 3 9 -60 12 -294 12 l-299 0 -12 -87z"/>
<path d="M4056 1733 c-10 -49 -19 -96 -22 -105 -5 -17 10 -18 214 -18 l220 0
16 73 c9 39 19 87 22 105 l7 32 -220 0 -220 0 -17 -87z"/>
<path d="M1861 1540 c-257 -54 -419 -332 -340 -585 17 -55 31 -78 73 -121 43
-42 66 -56 121 -73 162 -50 342 -4 457 117 91 95 131 199 131 337 0 198 -119
323 -316 331 -45 2 -102 -1 -126 -6z m167 -190 c97 -44 110 -205 27 -332 -56
-85 -188 -121 -274 -76 -27 14 -52 36 -63 58 -23 43 -24 139 -3 201 46 133
193 203 313 149z"/>
<path d="M3424 1536 c-90 -21 -161 -61 -229 -130 -121 -121 -171 -296 -128
-449 56 -202 317 -277 545 -155 64 34 147 118 179 179 l19 39 -109 0 c-99 0
-111 -2 -121 -20 -6 -11 -32 -32 -58 -47 -61 -36 -155 -39 -198 -7 -56 41 -69
69 -68 147 1 158 98 270 235 270 64 0 108 -21 133 -64 17 -29 17 -29 122 -29
119 0 117 -2 87 86 -22 66 -101 145 -168 167 -70 24 -169 29 -241 13z"/>
<path d="M2456 1518 c-3 -13 -33 -178 -66 -368 -33 -190 -63 -357 -66 -372
l-6 -28 96 0 c52 0 97 3 99 8 3 4 15 61 26 127 30 171 29 167 52 163 17 -2 32
-31 76 -150 l55 -148 109 0 c60 0 109 2 109 4 0 2 -27 69 -60 150 -33 81 -60
150 -59 154 0 4 27 20 60 36 102 48 156 145 147 265 -5 71 -37 119 -101 154
-39 20 -57 22 -254 25 l-212 3 -5 -23z m337 -149 c31 -17 37 -28 37 -72 0 -31
-7 -46 -34 -73 -33 -33 -36 -34 -119 -34 l-84 0 14 83 c7 45 16 88 18 95 6 16
138 16 168 1z"/>
<path d="M3975 1518 c-2 -13 -32 -178 -65 -368 -33 -190 -63 -357 -66 -373
l-6 -27 243 2 243 3 7 27 c4 15 10 50 14 77 l7 51 -144 0 -144 0 15 85 14 85
128 0 c143 0 134 -6 145 89 l7 61 -127 0 c-117 0 -127 1 -122 18 2 9 7 37 11
62 12 86 0 80 159 80 l143 0 12 57 c20 103 44 93 -229 93 l-240 0 -5 -22z"/>
</g>
</svg>
